<?xml version="1.0" encoding="utf-8"?>
<!-- Generator: Adobe Illustrator 23.0.1, SVG Export Plug-In . SVG Version: 6.00 Build 0)  -->
<svg version="1.1" id="idea-spark-logo_TM" xmlns="http://www.w3.org/2000/svg" xmlns:xlink="http://www.w3.org/1999/xlink" x="0px"
	 y="0px" viewBox="0 0 199.5 62.8" style="enable-background:new 0 0 199.5 62.8;" xml:space="preserve">
<style type="text/css">
	.st0{fill:#FFFFFF;}
	.st1{fill:url(#Path_17_1_);}
	.st2{fill:url(#Path_18_1_);}
	.st3{fill:url(#Path_19_1_);}
	.st4{fill:url(#Path_20_1_);}
	.st5{fill:url(#Path_21_1_);}
	.st6{fill:url(#Path_22_1_);}
	.st7{fill:url(#Path_23_1_);}
	.st8{fill:url(#Path_24_1_);}
	.st9{enable-background:new    ;}
</style>
<g id="Group_3" transform="translate(17.226 14.755)">
	<g id="Group_1">
		<path id="Path_1" d="M20.1,0.3v29.5c0,2.6,0.1,5.5,0.1,7.8h-6l-0.4-3h-0.1c-1.1,2.1-3.2,3.4-5.5,3.5C2.6,38,0,31.8,0,24.3
			c0-9.2,4-13.7,8.5-13.7c1.9-0.1,3.6,0.9,4.5,2.6h0.1V0h7V0.3z M13.1,21.4v-1.6c-0.3-1.6-1.2-3-2.6-3c-2.4,0-3.5,3.6-3.5,7.9
			c0,5,1.3,7.6,3.3,7.6c0.9,0,1.9-0.4,2.4-2.3c0.1-0.5,0.2-1.1,0.1-1.6v-7H13.1z"/>
		<path id="Path_2" d="M31.1,26.9c0.1,4,2.4,5.6,5.6,5.6c1.7,0,3.4-0.3,5-0.9l1,5c-2.4,0.8-4.8,1.2-7.3,1.2
			c-7.2,0-11.1-4.7-11.1-12.9c0-8.9,4.6-14.1,10.6-14.1c5.6,0,8.9,4.5,8.9,12.5c0.1,1.3,0,2.5-0.3,3.7H31.1V26.9z M37.4,22
			c0-3.5-0.9-6-3-6c-2.3,0-3.2,3.5-3.3,6H37.4z"/>
		<path id="Path_3" d="M59.5,37.5L59.1,35l0,0c-1.3,1.9-3.5,3.1-5.9,3c-4,0-6.9-3.3-6.9-8.1c0-6.9,6-9.8,12.1-9.8v-0.6
			c0.1-1.9-1.4-3.5-3.3-3.6c-0.2,0-0.3,0-0.5,0c-1.9,0-3.8,0.5-5.5,1.4l-1.3-4.7c2.5-1.3,5.3-2,8.2-2c8.1,0,9.3,5.6,9.3,10.9v9.8
			c0,2,0.1,4,0.4,6h-6.3V37.5z M58.5,24.7c-2.4,0-5.6,0.9-5.6,4.5c0,2.6,1.4,3.6,2.6,3.6c1.4,0,2.6-1,2.9-2.3
			c0.1-0.4,0.2-0.9,0.1-1.3V24.7z"/>
		<path id="Path_4" d="M70.3,31.2c1.4,0.9,3.1,1.4,4.7,1.4c1.9,0,2.9-0.9,2.9-2.4c0-1.3-0.7-2.2-3-3.6c-4.3-2.4-5.3-5.2-5.3-7.6
			c0-4.7,3.5-8.3,8.6-8.3c1.8,0,3.6,0.4,5.3,1.2L82.3,17c-1.1-0.7-2.4-1.1-3.7-1.2c-1.3-0.1-2.4,0.8-2.6,2.1c0,0.1,0,0.1,0,0.2
			c0,1.2,0.6,1.9,3,3.3c3.9,2.2,5.3,5,5.3,8.1c0,5.5-3.9,8.3-9.3,8.3c-2.1,0-4.2-0.5-6-1.4L70.3,31.2z"/>
		<path id="Path_5" d="M87.9,19.6c0-3.2-0.1-5.9-0.3-8.3h6.2l0.4,3h0.1c1-2.1,3.1-3.5,5.5-3.5c5.9,0,8.2,6.3,8.2,13.7
			c0,9.3-4.2,13.7-8.6,13.7c-1.8,0-3.5-1-4.3-2.6l0,0V48h-7.2V19.6z M95.1,27.9c0,0.8,0.1,1.6,0.4,2.3c0.6,1.6,1.4,2,2.3,2
			c2.4,0,3.3-3.7,3.3-7.8c0-5-1.2-7.8-3.3-7.8c-1.2,0.1-2.3,1.1-2.4,2.3c-0.2,0.6-0.3,1.2-0.3,1.9L95.1,27.9z"/>
		<path id="Path_6" d="M124,37.5l-0.4-2.6h-0.1c-1.3,1.9-3.5,3.1-5.9,3c-4,0-6.9-3.3-6.9-8.1c0-6.9,6-9.8,12.1-9.8v-0.6
			c0.1-1.9-1.4-3.5-3.3-3.6c-0.2,0-0.3,0-0.5,0c-1.9,0-3.8,0.5-5.5,1.4l-1.2-4.6c2.5-1.3,5.3-2,8.2-2c8.1,0,9.3,5.6,9.3,10.9v9.8
			c0,2,0.1,4,0.4,6L124,37.5L124,37.5z M123,24.7c-2.4,0-5.6,0.9-5.6,4.5c0,2.6,1.4,3.6,2.6,3.6c1.4,0,2.6-1,2.9-2.3
			c0.1-0.4,0.2-0.9,0.1-1.3L123,24.7z"/>
		<path id="Path_7" d="M134.8,19.1c0-2.6-0.1-5.5-0.3-7.9h6.2l0.4,3.9h0.1c1.2-2.9,3.3-4.3,5.2-4.3c0.5,0,1.1,0,1.6,0.1v7
			c-0.5-0.1-1.1-0.2-1.6-0.1c-1.4,0-3.5,1-4.3,3.7c-0.2,0.8-0.3,1.7-0.3,2.6v13.4h-7.2V19.1H134.8z"/>
		<path id="Path_8" d="M157.8,22.7L157.8,22.7c0.6-1.4,1-2.6,1.4-3.6l3.5-7.9h7.6L164,22.3l6.8,15.4h-8.1l-3.7-10.8l-1.2,2.3v8.6h-7
			V0.4h7V22.7z"/>
	</g>
	<g id="Group_2">
		<path id="Path_9" class="st0" d="M20.1,0.3v29.5c0,2.6,0.1,5.5,0.1,7.8h-6l-0.4-3h-0.1c-1.1,2.1-3.2,3.4-5.5,3.5
			C2.6,38,0,31.8,0,24.3c0-9.2,4-13.7,8.5-13.7c1.9-0.1,3.6,0.9,4.5,2.6h0.1V0h7V0.3z M13.1,21.4v-1.6c-0.3-1.6-1.2-3-2.6-3
			c-2.4,0-3.5,3.6-3.5,7.9c0,5,1.3,7.6,3.3,7.6c0.9,0,1.9-0.4,2.4-2.3c0.1-0.5,0.2-1.1,0.1-1.6v-7H13.1z"/>
		<path id="Path_10" class="st0" d="M31.1,26.9c0.1,4,2.4,5.6,5.6,5.6c1.7,0,3.4-0.3,5-0.9l1,5c-2.4,0.8-4.8,1.2-7.3,1.2
			c-7.2,0-11.1-4.7-11.1-12.9c0-8.9,4.6-14.1,10.6-14.1c5.6,0,8.9,4.5,8.9,12.5c0.1,1.3,0,2.5-0.3,3.7H31.1V26.9z M37.4,22
			c0-3.5-0.9-6-3-6c-2.3,0-3.2,3.5-3.3,6H37.4z"/>
		<path id="Path_11" class="st0" d="M59.5,37.5L59.1,35l0,0c-1.3,1.9-3.5,3.1-5.9,3c-4,0-6.9-3.3-6.9-8.1c0-6.9,6-9.8,12.1-9.8v-0.6
			c0.1-1.9-1.4-3.5-3.3-3.6c-0.2,0-0.3,0-0.5,0c-1.9,0-3.8,0.5-5.5,1.4l-1.3-4.7c2.5-1.3,5.3-2,8.2-2c8.1,0,9.3,5.6,9.3,10.9v9.8
			c0,2,0.1,4,0.4,6h-6.3V37.5z M58.5,24.7c-2.4,0-5.6,0.9-5.6,4.5c0,2.6,1.4,3.6,2.6,3.6c1.4,0,2.6-1,2.9-2.3
			c0.1-0.4,0.2-0.9,0.1-1.3V24.7z"/>
		<path id="Path_12" class="st0" d="M70.3,31.2c1.4,0.9,3.1,1.4,4.7,1.4c1.9,0,2.9-0.9,2.9-2.4c0-1.3-0.7-2.2-3-3.6
			c-4.3-2.4-5.3-5.2-5.3-7.6c0-4.7,3.5-8.3,8.6-8.3c1.8,0,3.6,0.4,5.3,1.2L82.3,17c-1.1-0.7-2.4-1.1-3.7-1.2
			c-1.3-0.1-2.4,0.8-2.6,2.1c0,0.1,0,0.1,0,0.2c0,1.2,0.6,1.9,3,3.3c3.9,2.2,5.3,5,5.3,8.1c0,5.5-3.9,8.3-9.3,8.3
			c-2.1,0-4.2-0.5-6-1.4L70.3,31.2z"/>
		<path id="Path_13" class="st0" d="M87.9,19.6c0-3.2-0.1-5.9-0.3-8.3h6.2l0.4,3h0.1c1-2.1,3.1-3.5,5.5-3.5c5.9,0,8.2,6.3,8.2,13.7
			c0,9.3-4.2,13.7-8.6,13.7c-1.8,0-3.5-1-4.3-2.6l0,0V48h-7.2V19.6z M95.1,27.9c0,0.8,0.1,1.6,0.4,2.3c0.6,1.6,1.4,2,2.3,2
			c2.4,0,3.3-3.7,3.3-7.8c0-5-1.2-7.8-3.3-7.8c-1.2,0.1-2.3,1.1-2.4,2.3c-0.2,0.6-0.3,1.2-0.3,1.9L95.1,27.9z"/>
		<path id="Path_14" class="st0" d="M124,37.5l-0.4-2.6h-0.1c-1.3,1.9-3.5,3.1-5.9,3c-4,0-6.9-3.3-6.9-8.1c0-6.9,6-9.8,12.1-9.8
			v-0.6c0.1-1.9-1.4-3.5-3.3-3.6c-0.2,0-0.3,0-0.5,0c-1.9,0-3.8,0.5-5.5,1.4l-1.2-4.6c2.5-1.3,5.3-2,8.2-2c8.1,0,9.3,5.6,9.3,10.9
			v9.8c0,2,0.1,4,0.4,6L124,37.5L124,37.5z M123,24.7c-2.4,0-5.6,0.9-5.6,4.5c0,2.6,1.4,3.6,2.6,3.6c1.4,0,2.6-1,2.9-2.3
			c0.1-0.4,0.2-0.9,0.1-1.3L123,24.7z"/>
		<path id="Path_15" class="st0" d="M134.8,19.1c0-2.6-0.1-5.5-0.3-7.9h6.2l0.4,3.9h0.1c1.2-2.9,3.3-4.3,5.2-4.3
			c0.5,0,1.1,0,1.6,0.1v7c-0.5-0.1-1.1-0.2-1.6-0.1c-1.4,0-3.5,1-4.3,3.7c-0.2,0.8-0.3,1.7-0.3,2.6v13.4h-7.2V19.1H134.8z"/>
		<path id="Path_16" class="st0" d="M157.8,22.7L157.8,22.7c0.6-1.4,1-2.6,1.4-3.6l3.5-7.9h7.6L164,22.3l6.8,15.4h-8.1l-3.7-10.8
			l-1.2,2.3v8.6h-7V0.4h7V22.7z"/>
	</g>
</g>
<g id="Group_4" transform="translate(0 14.755)">
	
		<linearGradient id="Path_17_1_" gradientUnits="userSpaceOnUse" x1="-377.1567" y1="392.0864" x2="-377.3027" y2="390.9004" gradientTransform="matrix(12.3353 0 0 -38.26 4658.8091 14999.6328)">
		<stop  offset="0" style="stop-color:#009C9E"/>
		<stop  offset="0.8" style="stop-color:#0F1844"/>
	</linearGradient>
	<path id="Path_17" class="st1" d="M12.3,0c0,0-11.1,3.9-7.6,19.1c0,0,4.9,11.5-0.7,19.1c0,0,2-5.3-1.4-13.7
		C2.7,24.5-7.7,0.9,12.3,0z"/>
	
		<linearGradient id="Path_18_1_" gradientUnits="userSpaceOnUse" x1="-361.2377" y1="392.0313" x2="-361.2257" y2="391.0643" gradientTransform="matrix(8.342 0 0 -38.117 3021.5554 14942.2559)">
		<stop  offset="0" style="stop-color:#009C9E"/>
		<stop  offset="0.8" style="stop-color:#0075C2"/>
	</linearGradient>
	<path id="Path_18" class="st2" d="M12.3,0c0,0-6.9,6-4.3,17.5c0.1,0.4,0.1,0.7,0.3,1.2C9,21,12,32.7,4,38.1c0,0,3.5-3.9,2.3-12.7
		c-0.2-1-0.4-1.9-0.7-2.9C4.4,18.7,0.7,5.3,12.3,0z"/>
</g>
<g id="Group_5" transform="translate(1.26)">
	
		<linearGradient id="Path_19_1_" gradientUnits="userSpaceOnUse" x1="-344.7729" y1="252.795" x2="-342.2619" y2="252.795" gradientTransform="matrix(6.041 0 0 -2.1634 2083.3469 549.2131)">
		<stop  offset="0" style="stop-color:#009C9E"/>
		<stop  offset="0.8" style="stop-color:#0F1844"/>
	</linearGradient>
	<path id="Path_19" class="st3" d="M7,1.2c1.3,0.1,2.5,0.9,2.9,2.2C9.3,2.4,8.2,1.8,7,1.8 M7,1.2C5.7,1.2,4.5,1.9,3.9,3.1
		c0.7-0.9,1.9-1.3,3-1.2"/>
	
		<linearGradient id="Path_20_1_" gradientUnits="userSpaceOnUse" x1="-262.8897" y1="352.491" x2="-261.5317" y2="353.717" gradientTransform="matrix(2.6636 0 0 -6.041 694.1618 2164.4478)">
		<stop  offset="0" style="stop-color:#009C9E"/>
		<stop  offset="0.8" style="stop-color:#0F1844"/>
	</linearGradient>
	<path id="Path_20" class="st4" d="M9.6,6c0.3,1.3-0.2,2.7-1.3,3.5c0.7-1,0.9-2.2,0.7-3.3 M9.6,6C9.4,4.7,8.4,3.6,7,3.4
		c1.1,0.5,1.8,1.6,2,2.7"/>
	
		<linearGradient id="Path_21_1_" gradientUnits="userSpaceOnUse" x1="-311.0139" y1="335.6971" x2="-310.4719" y2="334.531" gradientTransform="matrix(4.2303 0 0 -4.8882 1336.5646 1687.1627)">
		<stop  offset="0" style="stop-color:#009C9E"/>
		<stop  offset="0.8" style="stop-color:#0F1844"/>
	</linearGradient>
	<path id="Path_21" class="st5" d="M7,9.3c-0.8,1.1-2.2,1.5-3.5,1.1c1.1,0,2.2-0.6,2.9-1.4 M7,9.3c0.8-1,1-2.4,0.4-3.6
		C7.7,6.8,7.4,8,6.6,8.9"/>
	
		<linearGradient id="Path_22_1_" gradientUnits="userSpaceOnUse" x1="-344.2199" y1="252.7927" x2="-343.2369" y2="252.7927" gradientTransform="matrix(6.041 0 0 -2.1634 2079.4624 554.9599)">
		<stop  offset="0" style="stop-color:#009C9E"/>
		<stop  offset="0.8" style="stop-color:#0F1844"/>
	</linearGradient>
	<path id="Path_22" class="st6" d="M2.9,9.1C1.6,9.1,0.4,8.2,0,7c0.6,1,1.7,1.6,2.9,1.6 M2.9,9.1C4.2,9.2,5.5,8.5,6,7.3
		c-0.8,0.9-2,1.4-3.2,1.3"/>
	
		<linearGradient id="Path_23_1_" gradientUnits="userSpaceOnUse" x1="-290.2005" y1="352.7555" x2="-289.2025" y2="352.7555" gradientTransform="matrix(3.3673 0 0 -5.6101 977.2734 1983.4486)">
		<stop  offset="0" style="stop-color:#009C9E"/>
		<stop  offset="0.8" style="stop-color:#0F1844"/>
	</linearGradient>
	<path id="Path_23" class="st7" d="M0.4,5.3C-0.2,4.1,0,2.7,0.9,1.7C0.4,2.7,0.4,4,1,5 M0.4,5.3c0.5,1.2,1.7,2,3,2
		C2.3,7,1.4,6.1,1,5"/>
	
		<linearGradient id="Path_24_1_" gradientUnits="userSpaceOnUse" x1="-307.5752" y1="344.8445" x2="-306.5582" y2="344.8445" gradientTransform="matrix(3.9256 0 0 -4.9819 1209.4806 1720.4755)">
		<stop  offset="0" style="stop-color:#009C9E"/>
		<stop  offset="0.8" style="stop-color:#0F1844"/>
	</linearGradient>
	<path id="Path_24" class="st8" d="M2.7,1.4c0.7-1.1,2-1.6,3.3-1.3C4.9,0.1,3.8,0.7,3.2,1.7 M2.7,1.4C2,2.4,1.9,3.9,2.6,5
		c-0.2-1.1,0-2.3,0.6-3.3"/>
</g>
<g id="Group_7" transform="translate(188.423 4.315)">
	<path id="Path_27" class="st0" d="M5.8,10.3C2.9,10.3,0.5,8,0.5,5c0,0,0,0,0,0c0-2.9,2.4-5.3,5.3-5.3c2.9,0,5.3,2.4,5.3,5.3
		C11.1,7.9,8.8,10.3,5.8,10.3C5.8,10.3,5.8,10.3,5.8,10.3z M5.8,0.4c-2.5,0-4.6,2-4.6,4.5c0,0,0,0.1,0,0.1c0,2.5,2.1,4.6,4.6,4.6
		c2.5,0,4.6-2.1,4.6-4.6c0-2.5-2-4.6-4.5-4.6C5.9,0.4,5.8,0.4,5.8,0.4z"/>
	<g class="st9">
		<path class="st0" d="M4.8,4.2H3.9v2.5H3.4V4.2H2.5V3.8h2.3V4.2z"/>
		<path class="st0" d="M8.3,3.8v2.9H7.9V4.8c0-0.1,0-0.2,0-0.2L7,6.2c0,0.1-0.1,0.1-0.2,0.1H6.7c-0.1,0-0.1,0-0.2-0.1L5.7,4.6
			c0,0,0,0.1,0,0.1c0,0,0,0.1,0,0.1v1.9H5.2V3.8h0.4c0,0,0,0,0.1,0c0,0,0,0,0,0c0,0,0,0,0,0c0,0,0,0,0,0l0.9,1.6c0,0,0,0.1,0.1,0.1
			c0,0,0,0.1,0.1,0.1c0,0,0-0.1,0.1-0.1c0,0,0-0.1,0.1-0.1l0.9-1.6c0,0,0,0,0,0c0,0,0,0,0,0c0,0,0,0,0,0c0,0,0,0,0.1,0H8.3z"/>
	</g>
</g>
<g class="st9">
	<path class="st0" d="M122.2,59.7v-3.6h0.5c0.1,0,0.2,0.1,0.2,0.2l0.1,0.3c0.1-0.1,0.1-0.1,0.2-0.2c0.1-0.1,0.1-0.1,0.2-0.2
		s0.2-0.1,0.3-0.1s0.2,0,0.3,0c0.2,0,0.4,0.1,0.6,0.2c0.1,0.1,0.3,0.3,0.3,0.5c0.1-0.1,0.1-0.2,0.2-0.3s0.2-0.2,0.3-0.2
		c0.1-0.1,0.2-0.1,0.3-0.1s0.2,0,0.3,0c0.2,0,0.4,0,0.5,0.1s0.3,0.1,0.4,0.3c0.1,0.1,0.2,0.3,0.2,0.4s0.1,0.4,0.1,0.6v2.3h-0.9v-2.3
		c0-0.2,0-0.4-0.2-0.5s-0.2-0.2-0.4-0.2c-0.1,0-0.2,0-0.2,0s-0.1,0.1-0.2,0.1c-0.1,0.1-0.1,0.1-0.1,0.2c0,0.1,0,0.2,0,0.3v2.3h-0.9
		v-2.3c0-0.2,0-0.4-0.1-0.5s-0.2-0.2-0.4-0.2c-0.1,0-0.2,0-0.4,0.1c-0.1,0.1-0.2,0.1-0.3,0.3v2.6H122.2z"/>
	<path class="st0" d="M128,56.6c0.4-0.4,0.9-0.6,1.5-0.6c0.2,0,0.4,0,0.6,0.1c0.2,0.1,0.3,0.2,0.4,0.3c0.1,0.1,0.2,0.3,0.3,0.4
		c0.1,0.2,0.1,0.4,0.1,0.6v2.3h-0.4c-0.1,0-0.1,0-0.2,0c0,0-0.1-0.1-0.1-0.1l-0.1-0.3c-0.1,0.1-0.2,0.2-0.3,0.2
		c-0.1,0.1-0.2,0.1-0.3,0.2c-0.1,0-0.2,0.1-0.3,0.1c-0.1,0-0.2,0-0.4,0c-0.2,0-0.3,0-0.4-0.1c-0.1,0-0.2-0.1-0.3-0.2
		c-0.1-0.1-0.2-0.2-0.2-0.3c-0.1-0.1-0.1-0.3-0.1-0.4c0-0.1,0-0.2,0-0.3s0.1-0.2,0.1-0.3c0.1-0.1,0.2-0.2,0.3-0.2
		c0.1-0.1,0.2-0.1,0.4-0.2c0.2-0.1,0.3-0.1,0.6-0.1c0.2,0,0.5-0.1,0.7-0.1v-0.2c0-0.2-0.1-0.4-0.2-0.5s-0.3-0.2-0.4-0.2
		c-0.1,0-0.3,0-0.3,0c-0.1,0-0.2,0.1-0.2,0.1s-0.1,0.1-0.2,0.1c-0.1,0-0.1,0-0.2,0c-0.1,0-0.1,0-0.2,0c0,0-0.1-0.1-0.1-0.1L128,56.6
		z M130,58.1c-0.2,0-0.5,0-0.6,0.1c-0.2,0-0.3,0.1-0.4,0.1s-0.2,0.1-0.2,0.2c0,0.1-0.1,0.1-0.1,0.2c0,0.2,0,0.3,0.1,0.3
		s0.2,0.1,0.4,0.1c0.2,0,0.3,0,0.5-0.1c0.1-0.1,0.3-0.2,0.4-0.3V58.1z"/>
	<path class="st0" d="M132.5,56.5c0.1-0.1,0.1-0.1,0.2-0.2c0.1-0.1,0.2-0.1,0.3-0.2s0.2-0.1,0.3-0.1s0.2,0,0.3,0
		c0.2,0,0.4,0,0.5,0.1s0.3,0.2,0.4,0.3s0.2,0.3,0.2,0.4c0.1,0.2,0.1,0.4,0.1,0.6v2.3h-0.9v-2.3c0-0.2-0.1-0.4-0.2-0.5
		c-0.1-0.1-0.3-0.2-0.5-0.2c-0.1,0-0.3,0-0.4,0.1c-0.1,0.1-0.3,0.2-0.4,0.3v2.6h-0.9v-3.6h0.5c0.1,0,0.2,0.1,0.2,0.2L132.5,56.5z"/>
	<path class="st0" d="M135.5,56.6c0.4-0.4,0.9-0.6,1.5-0.6c0.2,0,0.4,0,0.6,0.1c0.2,0.1,0.3,0.2,0.4,0.3c0.1,0.1,0.2,0.3,0.3,0.4
		c0.1,0.2,0.1,0.4,0.1,0.6v2.3H138c-0.1,0-0.1,0-0.2,0c0,0-0.1-0.1-0.1-0.1l-0.1-0.3c-0.1,0.1-0.2,0.2-0.3,0.2
		c-0.1,0.1-0.2,0.1-0.3,0.2c-0.1,0-0.2,0.1-0.3,0.1c-0.1,0-0.2,0-0.4,0c-0.2,0-0.3,0-0.4-0.1c-0.1,0-0.2-0.1-0.3-0.2
		c-0.1-0.1-0.2-0.2-0.2-0.3c-0.1-0.1-0.1-0.3-0.1-0.4c0-0.1,0-0.2,0-0.3s0.1-0.2,0.1-0.3c0.1-0.1,0.2-0.2,0.3-0.2s0.2-0.1,0.4-0.2
		s0.3-0.1,0.6-0.1c0.2,0,0.5-0.1,0.7-0.1v-0.2c0-0.2-0.1-0.4-0.2-0.5s-0.3-0.2-0.4-0.2c-0.1,0-0.3,0-0.3,0c-0.1,0-0.2,0.1-0.2,0.1
		c-0.1,0-0.1,0.1-0.2,0.1c-0.1,0-0.1,0-0.2,0c-0.1,0-0.1,0-0.2,0c0,0-0.1-0.1-0.1-0.1L135.5,56.6z M137.5,58.1c-0.2,0-0.5,0-0.6,0.1
		c-0.2,0-0.3,0.1-0.4,0.1c-0.1,0-0.2,0.1-0.2,0.2c0,0.1-0.1,0.1-0.1,0.2c0,0.2,0,0.3,0.1,0.3s0.2,0.1,0.4,0.1c0.2,0,0.3,0,0.5-0.1
		c0.1-0.1,0.3-0.2,0.4-0.3V58.1z"/>
	<path class="st0" d="M142.3,56.2v0.3c0,0.1-0.1,0.2-0.2,0.2l-0.3,0.1c0,0.1,0.1,0.3,0.1,0.4c0,0.2,0,0.3-0.1,0.5s-0.2,0.3-0.3,0.4
		c-0.1,0.1-0.3,0.2-0.4,0.2c-0.2,0.1-0.4,0.1-0.6,0.1c-0.1,0-0.1,0-0.2,0c-0.1,0-0.1,0-0.2,0c-0.1,0.1-0.2,0.1-0.2,0.2
		c0,0.1,0,0.1,0.1,0.2c0.1,0,0.2,0.1,0.3,0.1s0.2,0,0.4,0c0.1,0,0.3,0,0.4,0c0.1,0,0.3,0,0.4,0.1c0.1,0,0.3,0.1,0.4,0.1
		c0.1,0.1,0.2,0.1,0.3,0.3c0.1,0.1,0.1,0.2,0.1,0.4c0,0.2,0,0.3-0.1,0.5c-0.1,0.1-0.2,0.3-0.3,0.4c-0.1,0.1-0.3,0.2-0.5,0.3
		c-0.2,0.1-0.5,0.1-0.7,0.1c-0.3,0-0.5,0-0.7-0.1c-0.2-0.1-0.4-0.1-0.5-0.2c-0.1-0.1-0.2-0.2-0.3-0.3s-0.1-0.2-0.1-0.4
		c0-0.2,0.1-0.3,0.2-0.4s0.2-0.2,0.4-0.3c-0.1,0-0.2-0.1-0.2-0.2c-0.1-0.1-0.1-0.2-0.1-0.3c0-0.1,0-0.1,0-0.2c0-0.1,0-0.1,0.1-0.2
		c0-0.1,0.1-0.1,0.1-0.2c0.1,0,0.1-0.1,0.2-0.1c-0.2-0.1-0.3-0.2-0.4-0.4c-0.1-0.2-0.2-0.4-0.2-0.6c0-0.2,0-0.3,0.1-0.5
		s0.2-0.3,0.3-0.4s0.3-0.2,0.5-0.2s0.4-0.1,0.6-0.1c0.2,0,0.3,0,0.4,0c0.1,0,0.3,0.1,0.4,0.1H142.3z M141.5,59.8
		c0-0.1,0-0.1-0.1-0.2c0,0-0.1-0.1-0.2-0.1c-0.1,0-0.2,0-0.3-0.1c-0.1,0-0.2,0-0.3,0s-0.2,0-0.3,0s-0.2,0-0.3,0
		c-0.1,0.1-0.2,0.1-0.2,0.2s-0.1,0.2-0.1,0.3c0,0.1,0,0.1,0,0.2s0.1,0.1,0.2,0.1c0.1,0,0.2,0.1,0.3,0.1s0.2,0,0.4,0
		c0.2,0,0.3,0,0.4,0c0.1,0,0.2-0.1,0.3-0.1c0.1,0,0.1-0.1,0.2-0.2S141.5,59.9,141.5,59.8z M140.5,57.8c0.1,0,0.2,0,0.3,0
		s0.1-0.1,0.2-0.1c0.1-0.1,0.1-0.1,0.1-0.2c0-0.1,0-0.2,0-0.2c0-0.2-0.1-0.3-0.2-0.4c-0.1-0.1-0.3-0.2-0.5-0.2
		c-0.2,0-0.4,0.1-0.5,0.2c-0.1,0.1-0.2,0.2-0.2,0.4c0,0.1,0,0.2,0,0.2c0,0.1,0.1,0.1,0.1,0.2c0.1,0.1,0.1,0.1,0.2,0.1
		C140.3,57.8,140.4,57.8,140.5,57.8z"/>
	<path class="st0" d="M143.5,58c0,0.2,0,0.3,0.1,0.5c0.1,0.1,0.1,0.2,0.2,0.3c0.1,0.1,0.2,0.2,0.3,0.2s0.2,0.1,0.4,0.1
		c0.1,0,0.3,0,0.4,0c0.1,0,0.2-0.1,0.3-0.1s0.1-0.1,0.2-0.1c0.1,0,0.1,0,0.2,0c0.1,0,0.1,0,0.2,0.1l0.2,0.3
		c-0.1,0.1-0.2,0.2-0.3,0.3c-0.1,0.1-0.2,0.1-0.4,0.2c-0.1,0-0.3,0.1-0.4,0.1c-0.1,0-0.3,0-0.4,0c-0.2,0-0.5,0-0.7-0.1
		c-0.2-0.1-0.4-0.2-0.6-0.4c-0.2-0.2-0.3-0.4-0.4-0.6c-0.1-0.2-0.1-0.5-0.1-0.8c0-0.2,0-0.5,0.1-0.7c0.1-0.2,0.2-0.4,0.3-0.6
		c0.1-0.2,0.3-0.3,0.5-0.4c0.2-0.1,0.5-0.1,0.7-0.1c0.2,0,0.4,0,0.6,0.1s0.4,0.2,0.5,0.3s0.2,0.3,0.3,0.5c0.1,0.2,0.1,0.4,0.1,0.7
		c0,0.1,0,0.2,0,0.3c0,0-0.1,0.1-0.2,0.1H143.5z M145.1,57.4c0-0.1,0-0.2,0-0.3c0-0.1-0.1-0.2-0.1-0.3c-0.1-0.1-0.1-0.1-0.2-0.2
		c-0.1,0-0.2-0.1-0.3-0.1c-0.2,0-0.4,0.1-0.6,0.2c-0.1,0.1-0.2,0.3-0.3,0.6H145.1z"/>
	<path class="st0" d="M151.4,54.5v5.2h-0.5c-0.1,0-0.2-0.1-0.2-0.2l-0.1-0.3c-0.1,0.2-0.3,0.3-0.5,0.4s-0.4,0.2-0.7,0.2
		c-0.2,0-0.4,0-0.5-0.1c-0.2-0.1-0.3-0.2-0.4-0.4c-0.1-0.2-0.2-0.3-0.3-0.6c-0.1-0.2-0.1-0.5-0.1-0.8c0-0.3,0-0.5,0.1-0.7
		c0.1-0.2,0.2-0.4,0.3-0.6c0.1-0.2,0.3-0.3,0.5-0.4c0.2-0.1,0.4-0.1,0.6-0.1c0.2,0,0.4,0,0.5,0.1c0.1,0.1,0.3,0.1,0.4,0.3v-1.9
		H151.4z M150.5,57c-0.1-0.1-0.2-0.2-0.3-0.3s-0.2-0.1-0.4-0.1c-0.1,0-0.2,0-0.4,0.1c-0.1,0-0.2,0.1-0.3,0.2
		c-0.1,0.1-0.1,0.2-0.2,0.4c0,0.2-0.1,0.3-0.1,0.5c0,0.2,0,0.4,0.1,0.5c0,0.1,0.1,0.3,0.1,0.4c0.1,0.1,0.1,0.2,0.2,0.2
		c0.1,0,0.2,0.1,0.3,0.1c0.2,0,0.3,0,0.5-0.1c0.1-0.1,0.2-0.2,0.4-0.3V57z"/>
	<path class="st0" d="M152.1,56.6c0.4-0.4,0.9-0.6,1.5-0.6c0.2,0,0.4,0,0.6,0.1c0.2,0.1,0.3,0.2,0.4,0.3c0.1,0.1,0.2,0.3,0.3,0.4
		c0.1,0.2,0.1,0.4,0.1,0.6v2.3h-0.4c-0.1,0-0.1,0-0.2,0c0,0-0.1-0.1-0.1-0.1l-0.1-0.3c-0.1,0.1-0.2,0.2-0.3,0.2
		c-0.1,0.1-0.2,0.1-0.3,0.2c-0.1,0-0.2,0.1-0.3,0.1c-0.1,0-0.2,0-0.4,0c-0.2,0-0.3,0-0.4-0.1c-0.1,0-0.2-0.1-0.3-0.2
		c-0.1-0.1-0.2-0.2-0.2-0.3c-0.1-0.1-0.1-0.3-0.1-0.4c0-0.1,0-0.2,0-0.3s0.1-0.2,0.1-0.3c0.1-0.1,0.2-0.2,0.3-0.2
		c0.1-0.1,0.2-0.1,0.4-0.2c0.2-0.1,0.3-0.1,0.6-0.1c0.2,0,0.5-0.1,0.7-0.1v-0.2c0-0.2-0.1-0.4-0.2-0.5s-0.3-0.2-0.4-0.2
		c-0.1,0-0.3,0-0.3,0c-0.1,0-0.2,0.1-0.2,0.1s-0.1,0.1-0.2,0.1c-0.1,0-0.1,0-0.2,0c-0.1,0-0.1,0-0.2,0c0,0-0.1-0.1-0.1-0.1
		L152.1,56.6z M154.1,58.1c-0.2,0-0.5,0-0.6,0.1c-0.2,0-0.3,0.1-0.4,0.1s-0.2,0.1-0.2,0.2c0,0.1-0.1,0.1-0.1,0.2
		c0,0.2,0,0.3,0.1,0.3s0.2,0.1,0.4,0.1c0.2,0,0.3,0,0.5-0.1c0.1-0.1,0.3-0.2,0.4-0.3V58.1z"/>
	<path class="st0" d="M156.9,59.7c-0.3,0-0.6-0.1-0.7-0.3c-0.2-0.2-0.3-0.4-0.3-0.7v-2h-0.4c0,0-0.1,0-0.1,0c0,0,0-0.1,0-0.1v-0.3
		l0.6-0.1l0.2-1c0,0,0-0.1,0.1-0.1c0,0,0.1,0,0.1,0h0.4v1.1h1v0.6h-1v1.9c0,0.1,0,0.2,0.1,0.3c0.1,0.1,0.1,0.1,0.2,0.1
		c0.1,0,0.1,0,0.1,0c0,0,0.1,0,0.1,0c0,0,0.1,0,0.1,0c0,0,0,0,0.1,0c0,0,0,0,0.1,0c0,0,0,0,0.1,0.1l0.3,0.4
		c-0.1,0.1-0.3,0.2-0.4,0.2S157.1,59.7,156.9,59.7z"/>
	<path class="st0" d="M158.2,56.6c0.4-0.4,0.9-0.6,1.5-0.6c0.2,0,0.4,0,0.6,0.1c0.2,0.1,0.3,0.2,0.4,0.3c0.1,0.1,0.2,0.3,0.3,0.4
		c0.1,0.2,0.1,0.4,0.1,0.6v2.3h-0.4c-0.1,0-0.1,0-0.2,0c0,0-0.1-0.1-0.1-0.1l-0.1-0.3c-0.1,0.1-0.2,0.2-0.3,0.2
		c-0.1,0.1-0.2,0.1-0.3,0.2c-0.1,0-0.2,0.1-0.3,0.1c-0.1,0-0.2,0-0.4,0c-0.2,0-0.3,0-0.4-0.1c-0.1,0-0.2-0.1-0.3-0.2
		c-0.1-0.1-0.2-0.2-0.2-0.3c-0.1-0.1-0.1-0.3-0.1-0.4c0-0.1,0-0.2,0-0.3s0.1-0.2,0.1-0.3c0.1-0.1,0.2-0.2,0.3-0.2
		c0.1-0.1,0.2-0.1,0.4-0.2c0.2-0.1,0.3-0.1,0.6-0.1c0.2,0,0.5-0.1,0.7-0.1v-0.2c0-0.2-0.1-0.4-0.2-0.5s-0.3-0.2-0.4-0.2
		c-0.1,0-0.3,0-0.3,0c-0.1,0-0.2,0.1-0.2,0.1s-0.1,0.1-0.2,0.1c-0.1,0-0.1,0-0.2,0c-0.1,0-0.1,0-0.2,0c0,0-0.1-0.1-0.1-0.1
		L158.2,56.6z M160.2,58.1c-0.2,0-0.5,0-0.6,0.1c-0.2,0-0.3,0.1-0.4,0.1s-0.2,0.1-0.2,0.2c0,0.1-0.1,0.1-0.1,0.2
		c0,0.2,0,0.3,0.1,0.3s0.2,0.1,0.4,0.1c0.2,0,0.3,0,0.5-0.1c0.1-0.1,0.3-0.2,0.4-0.3V58.1z"/>
	<path class="st0" d="M163.5,56.6c0.4-0.4,0.9-0.6,1.5-0.6c0.2,0,0.4,0,0.6,0.1c0.2,0.1,0.3,0.2,0.4,0.3c0.1,0.1,0.2,0.3,0.3,0.4
		c0.1,0.2,0.1,0.4,0.1,0.6v2.3h-0.4c-0.1,0-0.1,0-0.2,0c0,0-0.1-0.1-0.1-0.1l-0.1-0.3c-0.1,0.1-0.2,0.2-0.3,0.2
		c-0.1,0.1-0.2,0.1-0.3,0.2c-0.1,0-0.2,0.1-0.3,0.1c-0.1,0-0.2,0-0.4,0c-0.2,0-0.3,0-0.4-0.1c-0.1,0-0.2-0.1-0.3-0.2
		c-0.1-0.1-0.2-0.2-0.2-0.3c-0.1-0.1-0.1-0.3-0.1-0.4c0-0.1,0-0.2,0-0.3s0.1-0.2,0.1-0.3c0.1-0.1,0.2-0.2,0.3-0.2s0.2-0.1,0.4-0.2
		s0.3-0.1,0.6-0.1c0.2,0,0.5-0.1,0.7-0.1v-0.2c0-0.2-0.1-0.4-0.2-0.5s-0.3-0.2-0.4-0.2c-0.1,0-0.3,0-0.3,0c-0.1,0-0.2,0.1-0.2,0.1
		c-0.1,0-0.1,0.1-0.2,0.1c-0.1,0-0.1,0-0.2,0c-0.1,0-0.1,0-0.2,0c0,0-0.1-0.1-0.1-0.1L163.5,56.6z M165.5,58.1c-0.2,0-0.5,0-0.6,0.1
		c-0.2,0-0.3,0.1-0.4,0.1c-0.1,0-0.2,0.1-0.2,0.2c0,0.1-0.1,0.1-0.1,0.2c0,0.2,0,0.3,0.1,0.3s0.2,0.1,0.4,0.1c0.2,0,0.3,0,0.5-0.1
		c0.1-0.1,0.3-0.2,0.4-0.3V58.1z"/>
	<path class="st0" d="M169.3,56.8C169.3,56.8,169.3,56.8,169.3,56.8c-0.1,0.1-0.1,0.1-0.2,0.1c0,0-0.1,0-0.1,0s-0.1,0-0.2-0.1
		c-0.1,0-0.1-0.1-0.2-0.1c-0.1,0-0.2,0-0.3,0c-0.2,0-0.3,0-0.4,0.1s-0.1,0.2-0.1,0.3c0,0.1,0,0.1,0.1,0.2c0.1,0.1,0.1,0.1,0.2,0.1
		c0.1,0,0.2,0.1,0.3,0.1s0.2,0.1,0.3,0.1c0.1,0,0.2,0.1,0.3,0.1c0.1,0,0.2,0.1,0.3,0.2c0.1,0.1,0.1,0.2,0.2,0.3
		c0,0.1,0.1,0.2,0.1,0.4c0,0.2,0,0.3-0.1,0.5c-0.1,0.1-0.2,0.3-0.3,0.4c-0.1,0.1-0.3,0.2-0.4,0.2s-0.4,0.1-0.6,0.1
		c-0.1,0-0.2,0-0.4,0c-0.1,0-0.2-0.1-0.3-0.1c-0.1,0-0.2-0.1-0.3-0.1c-0.1-0.1-0.2-0.1-0.2-0.2l0.2-0.3c0,0,0.1-0.1,0.1-0.1
		c0,0,0.1,0,0.1,0s0.1,0,0.2,0s0.1,0.1,0.2,0.1c0.1,0,0.1,0.1,0.2,0.1s0.2,0,0.3,0c0.1,0,0.2,0,0.3,0s0.1-0.1,0.2-0.1
		c0,0,0.1-0.1,0.1-0.1c0-0.1,0-0.1,0-0.2c0-0.1,0-0.2-0.1-0.2c-0.1-0.1-0.1-0.1-0.2-0.1c-0.1,0-0.2-0.1-0.3-0.1s-0.2-0.1-0.3-0.1
		c-0.1,0-0.2-0.1-0.3-0.1c-0.1-0.1-0.2-0.1-0.3-0.2s-0.1-0.2-0.2-0.3s-0.1-0.2-0.1-0.4c0-0.1,0-0.3,0.1-0.4c0.1-0.1,0.1-0.2,0.3-0.3
		c0.1-0.1,0.3-0.2,0.4-0.2c0.2-0.1,0.4-0.1,0.6-0.1c0.2,0,0.5,0,0.7,0.1c0.2,0.1,0.4,0.2,0.5,0.3L169.3,56.8z"/>
	<path class="st0" d="M171.8,56.6c0.4-0.4,0.9-0.6,1.5-0.6c0.2,0,0.4,0,0.6,0.1c0.2,0.1,0.3,0.2,0.4,0.3c0.1,0.1,0.2,0.3,0.3,0.4
		c0.1,0.2,0.1,0.4,0.1,0.6v2.3h-0.4c-0.1,0-0.1,0-0.2,0c0,0-0.1-0.1-0.1-0.1l-0.1-0.3c-0.1,0.1-0.2,0.2-0.3,0.2
		c-0.1,0.1-0.2,0.1-0.3,0.2c-0.1,0-0.2,0.1-0.3,0.1c-0.1,0-0.2,0-0.4,0c-0.2,0-0.3,0-0.4-0.1c-0.1,0-0.2-0.1-0.3-0.2
		c-0.1-0.1-0.2-0.2-0.2-0.3c-0.1-0.1-0.1-0.3-0.1-0.4c0-0.1,0-0.2,0-0.3s0.1-0.2,0.1-0.3c0.1-0.1,0.2-0.2,0.3-0.2
		c0.1-0.1,0.2-0.1,0.4-0.2c0.2-0.1,0.3-0.1,0.6-0.1c0.2,0,0.5-0.1,0.7-0.1v-0.2c0-0.2-0.1-0.4-0.2-0.5s-0.3-0.2-0.4-0.2
		c-0.1,0-0.3,0-0.3,0c-0.1,0-0.2,0.1-0.2,0.1s-0.1,0.1-0.2,0.1c-0.1,0-0.1,0-0.2,0c-0.1,0-0.1,0-0.2,0c0,0-0.1-0.1-0.1-0.1
		L171.8,56.6z M173.8,58.1c-0.2,0-0.5,0-0.6,0.1c-0.2,0-0.3,0.1-0.4,0.1s-0.2,0.1-0.2,0.2c0,0.1-0.1,0.1-0.1,0.2
		c0,0.2,0,0.3,0.1,0.3s0.2,0.1,0.4,0.1c0.2,0,0.3,0,0.5-0.1c0.1-0.1,0.3-0.2,0.4-0.3V58.1z"/>
	<path class="st0" d="M177.6,56.8C177.6,56.8,177.6,56.8,177.6,56.8c-0.1,0.1-0.1,0.1-0.2,0.1c0,0-0.1,0-0.1,0s-0.1,0-0.2-0.1
		c-0.1,0-0.1-0.1-0.2-0.1c-0.1,0-0.2,0-0.3,0c-0.2,0-0.3,0-0.4,0.1s-0.1,0.2-0.1,0.3c0,0.1,0,0.1,0.1,0.2c0.1,0.1,0.1,0.1,0.2,0.1
		c0.1,0,0.2,0.1,0.3,0.1s0.2,0.1,0.3,0.1c0.1,0,0.2,0.1,0.3,0.1c0.1,0,0.2,0.1,0.3,0.2c0.1,0.1,0.1,0.2,0.2,0.3
		c0,0.1,0.1,0.2,0.1,0.4c0,0.2,0,0.3-0.1,0.5c-0.1,0.1-0.2,0.3-0.3,0.4c-0.1,0.1-0.3,0.2-0.4,0.2s-0.4,0.1-0.6,0.1
		c-0.1,0-0.2,0-0.4,0c-0.1,0-0.2-0.1-0.3-0.1c-0.1,0-0.2-0.1-0.3-0.1c-0.1-0.1-0.2-0.1-0.2-0.2l0.2-0.3c0,0,0.1-0.1,0.1-0.1
		c0,0,0.1,0,0.1,0s0.1,0,0.2,0s0.1,0.1,0.2,0.1c0.1,0,0.1,0.1,0.2,0.1s0.2,0,0.3,0c0.1,0,0.2,0,0.3,0s0.1-0.1,0.2-0.1
		c0,0,0.1-0.1,0.1-0.1c0-0.1,0-0.1,0-0.2c0-0.1,0-0.2-0.1-0.2c-0.1-0.1-0.1-0.1-0.2-0.1c-0.1,0-0.2-0.1-0.3-0.1s-0.2-0.1-0.3-0.1
		c-0.1,0-0.2-0.1-0.3-0.1c-0.1-0.1-0.2-0.1-0.3-0.2s-0.1-0.2-0.2-0.3s-0.1-0.2-0.1-0.4c0-0.1,0-0.3,0.1-0.4c0.1-0.1,0.1-0.2,0.3-0.3
		c0.1-0.1,0.3-0.2,0.4-0.2c0.2-0.1,0.4-0.1,0.6-0.1c0.2,0,0.5,0,0.7,0.1c0.2,0.1,0.4,0.2,0.5,0.3L177.6,56.8z"/>
	<path class="st0" d="M180.7,56.8C180.7,56.8,180.7,56.8,180.7,56.8c-0.1,0.1-0.1,0.1-0.2,0.1c0,0-0.1,0-0.1,0s-0.1,0-0.2-0.1
		c-0.1,0-0.1-0.1-0.2-0.1c-0.1,0-0.2,0-0.3,0c-0.2,0-0.3,0-0.4,0.1s-0.1,0.2-0.1,0.3c0,0.1,0,0.1,0.1,0.2c0.1,0.1,0.1,0.1,0.2,0.1
		c0.1,0,0.2,0.1,0.3,0.1s0.2,0.1,0.3,0.1c0.1,0,0.2,0.1,0.3,0.1c0.1,0,0.2,0.1,0.3,0.2c0.1,0.1,0.1,0.2,0.2,0.3
		c0,0.1,0.1,0.2,0.1,0.4c0,0.2,0,0.3-0.1,0.5c-0.1,0.1-0.2,0.3-0.3,0.4c-0.1,0.1-0.3,0.2-0.4,0.2s-0.4,0.1-0.6,0.1
		c-0.1,0-0.2,0-0.4,0c-0.1,0-0.2-0.1-0.3-0.1c-0.1,0-0.2-0.1-0.3-0.1c-0.1-0.1-0.2-0.1-0.2-0.2l0.2-0.3c0,0,0.1-0.1,0.1-0.1
		c0,0,0.1,0,0.1,0s0.1,0,0.2,0s0.1,0.1,0.2,0.1c0.1,0,0.1,0.1,0.2,0.1s0.2,0,0.3,0c0.1,0,0.2,0,0.3,0S180,59,180,59
		c0,0,0.1-0.1,0.1-0.1c0-0.1,0-0.1,0-0.2c0-0.1,0-0.2-0.1-0.2c-0.1-0.1-0.1-0.1-0.2-0.1c-0.1,0-0.2-0.1-0.3-0.1s-0.2-0.1-0.3-0.1
		c-0.1,0-0.2-0.1-0.3-0.1c-0.1-0.1-0.2-0.1-0.3-0.2s-0.1-0.2-0.2-0.3s-0.1-0.2-0.1-0.4c0-0.1,0-0.3,0.1-0.4c0.1-0.1,0.1-0.2,0.3-0.3
		c0.1-0.1,0.3-0.2,0.4-0.2c0.2-0.1,0.4-0.1,0.6-0.1c0.2,0,0.5,0,0.7,0.1c0.2,0.1,0.4,0.2,0.5,0.3L180.7,56.8z"/>
	<path class="st0" d="M182.3,58c0,0.2,0,0.3,0.1,0.5c0.1,0.1,0.1,0.2,0.2,0.3c0.1,0.1,0.2,0.2,0.3,0.2s0.2,0.1,0.4,0.1
		c0.1,0,0.3,0,0.4,0c0.1,0,0.2-0.1,0.3-0.1s0.1-0.1,0.2-0.1c0.1,0,0.1,0,0.2,0c0.1,0,0.1,0,0.2,0.1l0.2,0.3
		c-0.1,0.1-0.2,0.2-0.3,0.3c-0.1,0.1-0.2,0.1-0.4,0.2c-0.1,0-0.3,0.1-0.4,0.1c-0.1,0-0.3,0-0.4,0c-0.2,0-0.5,0-0.7-0.1
		c-0.2-0.1-0.4-0.2-0.6-0.4c-0.2-0.2-0.3-0.4-0.4-0.6c-0.1-0.2-0.1-0.5-0.1-0.8c0-0.2,0-0.5,0.1-0.7c0.1-0.2,0.2-0.4,0.3-0.6
		c0.1-0.2,0.3-0.3,0.5-0.4c0.2-0.1,0.5-0.1,0.7-0.1c0.2,0,0.4,0,0.6,0.1s0.4,0.2,0.5,0.3s0.2,0.3,0.3,0.5c0.1,0.2,0.1,0.4,0.1,0.7
		c0,0.1,0,0.2,0,0.3c0,0-0.1,0.1-0.2,0.1H182.3z M183.9,57.4c0-0.1,0-0.2,0-0.3c0-0.1-0.1-0.2-0.1-0.3c-0.1-0.1-0.1-0.1-0.2-0.2
		c-0.1,0-0.2-0.1-0.3-0.1c-0.2,0-0.4,0.1-0.6,0.2c-0.1,0.1-0.2,0.3-0.3,0.6H183.9z"/>
	<path class="st0" d="M186.5,59.7c-0.3,0-0.6-0.1-0.7-0.3c-0.2-0.2-0.3-0.4-0.3-0.7v-2h-0.4c0,0-0.1,0-0.1,0c0,0,0-0.1,0-0.1v-0.3
		l0.6-0.1l0.2-1c0,0,0-0.1,0.1-0.1c0,0,0.1,0,0.1,0h0.4v1.1h1v0.6h-1v1.9c0,0.1,0,0.2,0.1,0.3c0.1,0.1,0.1,0.1,0.2,0.1
		c0.1,0,0.1,0,0.1,0c0,0,0.1,0,0.1,0c0,0,0.1,0,0.1,0c0,0,0,0,0.1,0c0,0,0,0,0.1,0c0,0,0,0,0.1,0.1l0.3,0.4
		c-0.1,0.1-0.3,0.2-0.4,0.2S186.7,59.7,186.5,59.7z"/>
</g>
</svg>
